<svg xmlns="http://www.w3.org/2000/svg" width="150" height="150" viewBox="0 0 150 150"><g fill="none" fill-rule="evenodd"><path fill="#FFF" d="M5 75C5 36.36 36.36 5 75 5s70 31.36 70 70-31.36 70-70 70S5 113.64 5 75z"/><path fill="#CCC" fill-rule="nonzero" d="M0 75C0 33.6 33.6 0 75 0s75 33.6 75 75-33.6 75-75 75S0 116.4 0 75zm116.75 51.01a125.539 125.539 0 0 0-15.056-3.452c-6.19-1.13-11.308-8.026-14.14-14.83 6.637-4.3 12.023-12.04 16.612-22.375 2.08-1.573 3.96-4.713 4.795-8.314 1.214-5.174-.2-9.375-3.157-9.369-.025-.006-.05 0-.374.02.081-.02-.156.012-.367.062 1.015-6.76 1.687-13.245.454-19.586a17.12 17.12 0 0 0-.996-3.59c-2.36-8.082-12.565-17.7-29.795-17.7-17.235 0-27.44 9.618-29.807 17.7-.48 1.237-.81 2.441-.984 3.59-1.239 6.341-.566 12.826.443 19.586a1.958 1.958 0 0 0-.368-.063c-.268-.019-.324-.025-.373-.019-2.946-.006-4.36 4.195-3.151 9.369.84 3.601 2.72 6.74 4.794 8.314 4.596 10.336 9.97 18.075 16.607 22.363-2.833 6.816-7.958 13.713-14.14 14.842a125.364 125.364 0 0 0-15.063 3.452c11.426 9.013 26.07 14.424 42.036 14.424 15.96 0 30.604-5.411 42.03-14.424z"/></g></svg>