<svg id="Capa_1" enable-background="new 0 0 512 512" height="512" viewBox="0 0 512 512" width="512" xmlns="http://www.w3.org/2000/svg"><g><path d="m404.002 153.743h6.555c5.523 0 10-4.478 10-10.001s-4.477-10.001-10-10.001h-6.555c-5.523 0-10 4.478-10 10.001 0 5.524 4.477 10.001 10 10.001z"/><path d="m440.266 124.091c5.523 0 10-4.478 10-10.001v-6.548c0-5.523-4.477-10.001-10-10.001s-10 4.478-10 10.001v6.548c0 5.523 4.477 10.001 10 10.001z"/><path d="m440.266 189.943c5.523 0 10-4.478 10-10.001v-6.548c0-5.523-4.477-10.001-10-10.001s-10 4.478-10 10.001v6.548c0 5.523 4.477 10.001 10 10.001z"/><path d="m476.5 133.742h-6.555c-5.523 0-10 4.478-10 10.001s4.477 10.001 10 10.001h6.555c5.523 0 10-4.478 10-10.001s-4.477-10.001-10-10.001z"/><path d="m52.055 112.249c0-5.523-4.477-10.001-10-10.001h-6.555c-5.523 0-10 4.478-10 10.001s4.477 10.001 10 10.001h6.555c5.523-.001 10-4.479 10-10.001z"/><path d="m71.734 158.477c5.523 0 10-4.478 10-10.001v-6.576c0-5.523-4.477-10.001-10-10.001s-10 4.478-10 10.001v6.577c0 5.522 4.477 10 10 10z"/><path d="m101.415 122.249h6.555c5.523 0 10-4.478 10-10.001s-4.477-10.001-10-10.001h-6.555c-5.523 0-10 4.478-10 10.001s4.477 10.001 10 10.001z"/><path d="m71.734 92.597c5.523 0 10-4.478 10-10.001v-6.548c0-5.523-4.477-10.001-10-10.001s-10 4.478-10 10.001v6.548c0 5.523 4.477 10.001 10 10.001z"/><path d="m242.835 49.219.032.021c.072.05.153.105.243.168 3.111 2.131 4.64 4.382 4.543 6.692-.012.277-.012.556 0 .833.096 2.29-1.433 4.532-4.542 6.663-.179.122-.323.223-.428.298-4.489 3.217-5.541 9.479-2.323 13.969 1.956 2.729 5.023 4.185 8.137 4.185 2.008 0 4.036-.606 5.796-1.867l.121-.083c11.73-8.037 13.371-18.058 13.235-23.581.135-5.534-1.505-15.57-13.236-23.608l-.08-.054c-.077-.056-.155-.109-.234-.163l-.235-.156c-2.134-1.411-4.652-3.709-4.53-6.643.012-.277.012-.555 0-.832-.096-2.313 1.431-4.548 4.538-6.644l.367-.251c4.511-3.154 5.598-9.344 2.464-13.87-3.133-4.525-9.36-5.648-13.902-2.537l-.113.076c-8.862 5.979-13.59 14.362-13.351 23.645-.23 9.269 4.671 17.902 13.498 23.739z"/><path d="m176.231 80.718.079.054c.108.077.258.181.444.309 3.109 2.128 4.634 4.357 4.533 6.625-.013.297-.013.595 0 .891.102 2.288-1.424 4.529-4.534 6.658-.186.127-.334.23-.442.308-4.487 3.22-5.537 9.484-2.317 13.972 1.957 2.727 5.021 4.182 8.133 4.182 2.009 0 4.039-.607 5.799-1.871l.123-.085c11.743-8.038 13.378-18.064 13.234-23.607.145-5.534-1.491-15.541-13.233-23.578l-.079-.054c-.108-.077-.257-.181-.443-.309-3.109-2.128-4.635-4.357-4.533-6.625.013-.297.013-.595 0-.892-.102-2.288 1.423-4.528 4.534-6.657.186-.127.334-.23.442-.308 4.487-3.22 5.537-9.484 2.317-13.972s-9.445-5.533-13.933-2.311l-.123.085c-11.744 8.039-13.378 18.064-13.234 23.607-.144 5.534 1.491 15.542 13.233 23.578z"/><path d="m308.94 80.718.079.054c.108.077.258.182.444.309 3.109 2.128 4.634 4.357 4.533 6.625-.013.297-.013.595 0 .892.102 2.288-1.423 4.528-4.534 6.657-.186.127-.334.23-.442.308-4.487 3.22-5.537 9.484-2.317 13.972 1.957 2.727 5.021 4.182 8.133 4.182 2.009 0 4.039-.607 5.799-1.871l.123-.085c11.743-8.038 13.378-18.063 13.234-23.606.145-5.534-1.49-15.542-13.233-23.579l-.079-.054c-.108-.077-.257-.181-.443-.308-3.109-2.129-4.635-4.359-4.533-6.626.013-.297.013-.595 0-.891-.102-2.288 1.424-4.529 4.534-6.658.186-.127.334-.23.442-.308 4.487-3.22 5.537-9.484 2.317-13.972s-9.446-5.533-13.933-2.311l-.123.085c-11.743 8.038-13.378 18.063-13.234 23.606-.145 5.534 1.49 15.542 13.233 23.579z"/><path d="m150.891 356.472c1.953 1.955 4.514 2.933 7.075 2.933 2.557 0 5.115-.976 7.067-2.926l10.397-10.387 10.397 10.387c1.952 1.951 4.51 2.926 7.067 2.926 2.561 0 5.122-.978 7.075-2.933 3.903-3.907 3.9-10.24-.007-14.142l-10.383-10.373 10.383-10.373c3.907-3.903 3.911-10.235.007-14.142-3.903-3.907-10.235-3.909-14.142-.007l-10.397 10.387-10.397-10.387c-3.907-3.906-10.24-3.902-14.142.007-3.903 3.907-3.9 10.24.007 14.142l10.383 10.373-10.383 10.373c-3.907 3.902-3.911 10.235-.007 14.142z"/><path d="m346.206 342.329-10.382-10.372 10.382-10.372c3.907-3.904 3.911-10.236.007-14.143-3.903-3.907-10.235-3.911-14.142-.008l-10.397 10.387-10.397-10.387c-3.908-3.904-10.239-3.901-14.142.008-3.903 3.907-3.9 10.24.007 14.143l10.382 10.372-10.382 10.372c-3.907 3.904-3.911 10.236-.007 14.143 1.953 1.955 4.514 2.933 7.075 2.933 2.557 0 5.115-.975 7.067-2.925l10.397-10.387 10.397 10.387c1.953 1.95 4.51 2.925 7.067 2.925 2.561 0 5.122-.978 7.075-2.933 3.903-3.907 3.9-10.24-.007-14.143z"/><path d="m248.509 464.036c39.247 0 71.176-31.903 71.176-71.118 0-5.523-4.477-10.001-10-10.001h-122.38c-5.523 0-10 4.478-10 10.001 0 39.215 31.942 71.118 71.204 71.118zm50.193-61.118c-4.668 23.414-25.399 41.117-50.192 41.117-24.807 0-45.55-17.702-50.221-41.117z"/><path d="m424.773 265.388h-13.145c-5.099-34.758-21.226-66.912-46.674-92.339-31.223-31.197-72.577-48.378-116.445-48.378-43.88 0-85.243 17.181-116.47 48.378-25.45 25.426-41.579 57.58-46.677 92.339h-13.145c-17.295 0-31.366 14.062-31.366 31.347v26.336c0 17.284 14.071 31.346 31.366 31.346h11.882c5.584 59.275 59.32 125.794 122.31 149.135 15.439 5.735 28.81 8.419 42.123 8.45 13.279-.03 26.642-2.716 42.035-8.445 13.518-4.998 26.908-12.101 39.8-21.111 4.527-3.164 5.632-9.399 2.469-13.927-3.164-4.527-9.397-5.632-13.925-2.469-11.494 8.033-23.363 14.34-35.299 18.754-13.125 4.884-24.287 7.17-35.079 7.196-10.831-.025-22.003-2.313-35.167-7.201-58.467-21.664-109.754-87.264-109.754-140.383v-54.996c0-3.429.129-6.829.365-10.199 13.293-12.463 26.058-17.955 39.968-17.256 13.868.705 28.083 7.351 43.131 14.387 18.923 8.847 38.491 17.995 61.434 17.995 22.932 0 42.491-9.147 61.407-17.993 15.047-7.037 29.259-13.682 43.127-14.389 13.905-.701 26.676 4.792 39.97 17.256.236 3.37.365 6.77.365 10.199v54.995c0 18.19-6.156 38.702-17.803 59.317-2.717 4.809-1.021 10.91 3.788 13.626 4.809 2.719 10.909 1.021 13.625-3.787 11.315-20.029 18.085-40.27 19.885-59.155h11.899c17.295 0 31.366-14.061 31.366-31.346v-26.336c0-17.284-14.071-31.346-31.366-31.346zm-363.922 57.682v-26.336c0-6.256 5.099-11.345 11.366-11.345h11.444c-.032 1.341-.049 2.685-.049 4.031v44.994h-11.395c-6.268 0-11.366-5.089-11.366-11.344zm240.594-64.834c-16.936 7.92-34.449 16.11-52.936 16.11-18.5 0-36.02-8.191-52.964-16.113-25.906-12.111-54.645-25.538-86.676-7.481 16.975-61.1 73.145-106.08 139.64-106.08 66.482 0 122.64 44.981 139.612 106.081-32.033-18.061-60.771-4.631-86.676 7.483zm134.694 64.834c0 6.255-5.099 11.344-11.366 11.344h-11.395v-44.994c0-1.346-.017-2.69-.049-4.031h11.444c6.268 0 11.366 5.089 11.366 11.345z"/><path d="m353.535 435.821c-4.94 2.47-6.942 8.477-4.472 13.417 1.752 3.505 5.284 5.531 8.952 5.531 1.502 0 3.029-.34 4.464-1.058l.057-.028c4.94-2.47 6.914-8.463 4.444-13.403-2.471-4.941-8.505-6.93-13.445-4.459z"/></g></svg>